<svg width="45" height="61" viewBox="0 0 45 61" fill="none" xmlns="http://www.w3.org/2000/svg">
<g id="E-Cell logo">
<path id="Path 634" d="M18.4593 25.7776C18.6436 27.0896 19.2825 28.293 20.2624 29.1738C20.7494 29.5472 21.3044 29.8198 21.8958 29.9762C22.4872 30.1326 23.1033 30.1696 23.7089 30.0852C25.1836 29.9699 26.6499 29.7627 28.0993 29.4645C29.9 29.145 31.5838 28.3462 32.9772 27.1504C33.742 26.505 34.3237 25.6662 34.6628 24.7195C35.0018 23.7728 35.0862 22.7522 34.9073 21.7618C34.2499 17.777 31.811 15.109 28.3963 13.2666C26.5399 12.2848 24.4675 11.7947 22.3727 11.8421C19.6596 11.82 17.0105 12.6738 14.8112 14.2791C12.612 15.8844 10.9776 18.1573 10.1462 20.7666C9.62962 22.4963 9.47028 24.3147 9.67811 26.1092C9.88595 27.9037 10.4565 29.6359 11.3544 31.1983C12.192 32.7407 13.221 34.1766 14.1436 35.6766C15.055 37.0237 15.5598 38.6093 15.5965 40.2407C15.6661 40.8758 15.9552 41.4657 16.413 41.9066C16.8707 42.3474 17.4677 42.6111 18.0989 42.651H26.6352C27.2506 42.648 27.8466 42.4331 28.3248 42.0417C28.8031 41.6503 29.1349 41.1059 29.2656 40.4983C29.2758 40.4341 29.2973 40.3586 29.3076 40.2624H31.0994C31.084 40.8401 30.9508 41.4083 30.7082 41.9316C30.4657 42.4549 30.1188 42.922 29.6895 43.3038C29.4765 43.519 29.2328 43.6896 29.0004 43.8934C28.5132 44.3109 27.8889 44.5287 27.2505 44.5038C23.931 44.4717 20.6013 44.4934 17.2818 44.4821C16.9562 44.4701 16.639 44.3743 16.3603 44.2038C15.2957 43.6137 14.4642 42.6717 14.0053 41.5359C13.875 41.2058 13.7996 40.8563 13.7821 40.5014C13.7386 38.9388 13.2119 37.4292 12.276 36.1845C10.8833 34.3396 9.7258 32.3252 8.83052 30.1886C7.30388 25.8604 7.2404 21.5538 9.54111 17.4935C10.6917 15.3813 12.3494 13.5953 14.3619 12.2997C16.3744 11.0042 18.677 10.2406 21.058 10.0794C23.0382 9.85275 25.0435 10.0411 26.9484 10.6328C28.8534 11.2244 30.6171 12.2066 32.1294 13.518C34.5242 15.4278 36.1578 18.1455 36.7309 21.1732C36.938 22.2908 36.9071 23.4403 36.6401 24.545C36.3732 25.6496 35.8763 26.6842 35.1827 27.5797C33.6627 29.5181 31.7115 31.0669 29.4878 32.1004C27.7759 33.0736 25.8704 33.6483 23.9106 33.7824C22.0093 33.9086 20.1009 33.874 18.2054 33.679C16.8028 33.4435 15.525 32.7225 14.591 31.6395C13.657 30.5565 13.1248 29.179 13.0859 27.7431C12.8904 25.3458 13.3485 22.9401 14.4104 20.7871C15.4722 18.6341 17.0974 16.816 19.1095 15.5301C19.9384 14.9289 20.8805 14.5058 21.8777 14.287C22.8748 14.0681 23.9057 14.0581 24.9068 14.2577C25.5099 14.324 26.0885 14.5349 26.5945 14.8728C27.1006 15.2108 27.5194 15.666 27.8161 16.2006C28.1128 16.7351 28.2788 17.3336 28.3003 17.946C28.3218 18.5585 28.1981 19.1673 27.9396 19.7218C27.2713 21.3054 26.0244 22.5677 24.4584 23.2463C22.772 24.0925 21.0017 24.7462 19.262 25.4849C18.9998 25.5969 18.7319 25.6946 18.4593 25.7776ZM18.2474 24.0418C19.2248 23.8371 20.16 23.4637 21.0119 22.938C21.9473 22.4577 22.7186 21.7048 23.2257 20.7767C23.7328 19.8487 23.9525 18.7881 23.8563 17.7325C23.8837 17.4159 23.8164 17.0983 23.6633 16.8207C23.5102 16.5431 23.2782 16.3183 22.9973 16.1753C22.7164 16.0322 22.3995 15.9776 22.0876 16.0184C21.7756 16.0592 21.483 16.1936 21.2474 16.4042C21.0655 16.5147 20.898 16.6478 20.7488 16.8004C18.7777 18.7928 18.3211 21.3211 18.2474 24.0418Z" fill="#F5F2FF"/>
<path id="Path 635" d="M16.1273 47.5396C16.0257 47.5918 15.9139 47.6206 15.8 47.624C15.6861 47.6273 15.5728 47.6052 15.4684 47.5591C15.3639 47.513 15.2709 47.4441 15.1959 47.3574C15.121 47.2707 15.0659 47.1683 15.0348 47.0575C14.7325 46.6279 14.2753 46.3355 13.7616 46.2432C13.248 46.1509 12.719 46.2661 12.2887 46.5641C10.9944 47.5396 11.1624 50.132 11.9815 51.0123C12.2075 51.2383 12.4857 51.4036 12.791 51.4933C13.0963 51.5831 13.4189 51.5944 13.7296 51.5263C14.0403 51.4582 14.3292 51.3128 14.5702 51.1032C14.8111 50.8937 14.9965 50.6267 15.1095 50.3265C15.3215 49.7058 15.6614 49.6406 16.1805 49.7803C16.1623 50.4313 15.9136 51.0541 15.4796 51.5356C15.0456 52.0172 14.4551 52.3256 13.8153 52.4048C10.9627 52.6727 10.2419 50.3689 10.3269 48.5482C10.3388 48.3356 10.3672 48.1243 10.4118 47.9161C10.4746 47.3796 10.6847 46.8714 11.0184 46.4491C11.352 46.0268 11.7959 45.7072 12.2999 45.5265C12.8165 45.3078 13.3828 45.2371 13.9366 45.3221C14.4904 45.4071 15.0102 45.6446 15.4392 46.0086C15.6558 46.1991 15.8293 46.4343 15.948 46.6985C16.0667 46.9626 16.1278 47.2495 16.1273 47.5396Z" fill="#F5F2FF"/>
<path id="Path 636" d="M22.6552 45.6301H26.5153C27.1204 45.6301 27.3958 45.866 27.4173 46.3543C27.4273 46.4665 27.4121 46.5796 27.3731 46.6852C27.334 46.7908 27.2721 46.8862 27.1917 46.9644C27.1114 47.0426 27.0147 47.1016 26.9088 47.1371C26.8029 47.1726 26.6905 47.1836 26.5798 47.1694C25.1903 47.2015 23.7907 47.1911 22.4012 47.1911C21.1285 47.1911 19.8671 47.1798 18.5944 47.1694C18.2022 47.1694 17.8623 46.9874 17.8418 46.5694C17.8442 46.2814 17.941 46.0024 18.1172 45.776C18.2124 45.6477 18.4991 45.626 18.7008 45.626L22.6552 45.6301Z" fill="#F5F2FF"/>
<path id="Path 637" d="M7.75821 13.2739C7.74797 13.8842 7.46127 14.3084 6.96263 14.3342C6.53036 14.3637 6.09748 14.2867 5.70119 14.1098C4.89715 13.7033 4.11483 13.2544 3.35748 12.7649C3.07385 12.5607 2.83246 12.3024 2.64689 12.0046C2.5107 11.8463 2.44022 11.641 2.45014 11.4316C2.46006 11.2221 2.54961 11.0245 2.70013 10.8801C3.01716 10.6537 3.38545 10.5114 3.77113 10.4663C4.02033 10.459 4.26545 10.5314 4.47148 10.6732C5.33053 11.1553 6.18959 11.6477 7.03738 12.1732C7.23975 12.2803 7.41199 12.4373 7.53803 12.6298C7.66408 12.8223 7.73982 13.0439 7.75821 13.2739Z" fill="#F5F2FF"/>
<path id="Path 638" d="M37.3747 14.5187C37.0563 14.3046 36.5894 14.1546 36.4737 13.8546C36.4082 13.4535 36.437 13.0424 36.5576 12.6546C36.5699 12.602 36.5934 12.5527 36.6265 12.5102C36.6596 12.4677 36.7014 12.4329 36.7491 12.4084C37.8948 11.7546 39.0181 11.0687 40.1955 10.4905C40.4191 10.392 40.6713 10.3827 40.9014 10.4642C41.1316 10.5457 41.3227 10.7122 41.4365 10.9301C41.5699 11.1248 41.6303 11.361 41.6071 11.5966C41.5838 11.8322 41.4783 12.0517 41.3095 12.216C40.2713 13.1737 39.0524 13.9098 37.7259 14.3801C37.6388 14.3988 37.5496 14.4061 37.4607 14.4018C37.424 14.434 37.3946 14.4739 37.3747 14.5187Z" fill="#F5F2FF"/>
<path id="Path 639" d="M29.8477 6.62274C29.903 6.34624 29.9881 6.0767 30.1016 5.81895C30.547 4.99136 31.0231 4.19067 31.491 3.36516C31.5125 3.33309 31.5228 3.30102 31.5443 3.26895C31.7055 2.99118 31.9601 2.78109 32.2616 2.67687C32.5632 2.57265 32.8918 2.58122 33.1876 2.70102C33.3171 2.7798 33.43 2.88358 33.5198 3.00644C33.6096 3.1293 33.6746 3.26882 33.711 3.41705C33.7474 3.56528 33.7545 3.7193 33.732 3.87032C33.7095 4.02135 33.6578 4.16641 33.5798 4.29723C33.0994 5.30459 32.5428 6.27299 31.9149 7.19377C31.8238 7.35894 31.6924 7.49784 31.5332 7.5973C31.374 7.69676 31.1923 7.75348 31.0053 7.76209C30.8183 7.77069 30.6323 7.73088 30.4648 7.64645C30.2973 7.56201 30.154 7.43575 30.0483 7.27964C29.9564 7.0693 29.889 6.84884 29.8477 6.62274Z" fill="#F5F2FF"/>
<path id="Path 640" d="M13.2626 7.73563C12.9955 7.75108 12.7297 7.68735 12.498 7.55227C12.2662 7.41719 12.0786 7.21665 11.9581 6.97529C11.481 6.18288 11.0366 5.3791 10.5902 4.56496C10.5038 4.41191 10.4429 4.24555 10.41 4.07254C10.3257 3.82469 10.3269 3.55528 10.4136 3.30824C10.5002 3.06121 10.6671 2.85111 10.8871 2.71221C11.1276 2.58932 11.404 2.55849 11.6652 2.62542C11.9264 2.69235 12.1549 2.85252 12.3083 3.07634C12.7876 3.75822 13.2233 4.47037 13.6128 5.20841C13.8419 5.6045 14.027 6.02498 14.1646 6.4622C14.2109 6.60709 14.2229 6.76092 14.1997 6.91135C14.1765 7.06178 14.1187 7.20462 14.031 7.32842C13.9433 7.45223 13.8281 7.55356 13.6947 7.62427C13.5612 7.69499 13.4133 7.73312 13.2626 7.73563Z" fill="#F5F2FF"/>
<path id="Path 641" d="M22.5529 49.6497H19.9501C19.3665 49.6497 19.1126 49.4346 19.0911 48.9535C19.0698 48.842 19.0748 48.727 19.1057 48.6178C19.1365 48.5085 19.1924 48.4082 19.2687 48.3248C19.3451 48.2414 19.4398 48.1773 19.5452 48.1378C19.6505 48.0982 19.7637 48.0842 19.8754 48.097C21.6887 48.0753 23.5123 48.0753 25.3369 48.0867C25.5506 48.0962 25.7535 48.1842 25.9077 48.334C26.0619 48.4839 26.1567 48.6854 26.1744 48.9008C26.1661 49.0125 26.1352 49.1214 26.0836 49.2206C26.032 49.3197 25.9609 49.4072 25.8745 49.4775C25.7881 49.5478 25.6884 49.5994 25.5815 49.6292C25.4746 49.659 25.3627 49.6664 25.2529 49.6508L22.5529 49.6497Z" fill="#F5F2FF"/>
<path id="Path 642" d="M41.5238 21.2252C41.9692 21.2252 42.4033 21.2149 42.8487 21.2252C43.1416 21.2076 43.4308 21.2978 43.6629 21.479C43.895 21.6603 44.0543 21.9204 44.1112 22.2111C44.1179 22.3472 44.097 22.4832 44.0498 22.6109C44.0026 22.7385 43.9301 22.8551 43.8367 22.9534C43.7433 23.0517 43.631 23.1297 43.5067 23.1827C43.3824 23.2356 43.2488 23.2623 43.1139 23.2611C42.0476 23.3449 40.9762 23.3376 39.9111 23.2394C39.7808 23.2344 39.6529 23.2019 39.5357 23.1439C39.4185 23.086 39.3146 23.0039 39.2307 22.903C39.1468 22.802 39.0847 22.6844 39.0485 22.5578C39.0122 22.4312 39.0027 22.2983 39.0203 22.1677C39.0752 21.9042 39.2161 21.667 39.4203 21.4941C39.6245 21.3211 39.8803 21.2225 40.1466 21.2139C40.6115 21.2139 41.0681 21.2252 41.5238 21.2252Z" fill="#F5F2FF"/>
<path id="Path 643" d="M2.55219 21.2231C2.97609 21.2231 3.40101 21.2128 3.8249 21.2231C4.1185 21.2153 4.40552 21.3118 4.636 21.4957C4.86649 21.6796 5.02585 21.9393 5.08635 22.2297C5.08474 22.5019 4.97699 22.7625 4.78647 22.955C4.59596 23.1475 4.33803 23.2563 4.0686 23.258C3.01989 23.3364 1.96662 23.3292 0.919068 23.2362C0.784518 23.2402 0.650818 23.2134 0.527964 23.1579C0.405111 23.1023 0.296284 23.0193 0.209627 22.9153C0.12297 22.8112 0.0607211 22.6887 0.0275431 22.5569C-0.00563488 22.4251 -0.00888166 22.2874 0.0180362 22.1542C0.0493224 21.8946 0.175437 21.6562 0.371667 21.4857C0.567896 21.3152 0.820085 21.2249 1.0788 21.2324C1.55593 21.2004 2.05458 21.2324 2.55322 21.2221L2.55219 21.2231Z" fill="#F5F2FF"/>
<path id="Path 644" d="M20.9512 2.30487C21.0044 1.89108 21.0362 1.24452 21.1631 0.633143C21.208 0.429651 21.3288 0.251513 21.5005 0.135871C21.6722 0.0202299 21.8815 -0.0239843 22.0846 0.0124571C22.2887 0.0136268 22.4864 0.0840161 22.6461 0.212333C22.8058 0.340651 22.9181 0.519453 22.9652 0.720039C23.0377 0.919439 23.0805 1.12862 23.0922 1.34073C23.0819 2.29452 23.0819 3.25865 22.9969 4.21244C22.9773 4.45648 22.8689 4.68452 22.6927 4.85261C22.5165 5.02071 22.2849 5.11695 22.0427 5.12279C21.8015 5.11551 21.5711 5.02041 21.3938 4.85502C21.2166 4.68963 21.1045 4.4651 21.0781 4.22279C21.001 3.58632 20.9586 2.94605 20.9512 2.30487Z" fill="#F5F2FF"/>
<path id="Path 645" d="M34.449 51.4368H37.7368C37.747 51.6934 37.7583 51.9086 37.7798 52.1868H33.5449V45.5879H34.446L34.449 51.4368Z" fill="#F5F2FF"/>
<path id="Path 646" d="M32.658 51.4159V52.1979H28.4693C28.4428 52.0889 28.425 51.9778 28.416 51.8659V45.9838C28.416 45.2018 28.9884 45.6735 29.3601 45.5235V51.42L32.658 51.4159Z" fill="#F5F2FF"/>
<path id="Path 647" d="M25.2664 59.6981C25.4568 58.9046 25.6483 58.1226 25.8397 57.3302C25.9554 56.8584 25.9667 56.8584 26.5493 56.9764C26.4469 57.3726 26.3445 57.7584 26.2524 58.1433C26.0476 58.915 25.8705 59.695 25.6483 60.4574C25.6053 60.6177 25.3933 60.8432 25.2664 60.8329C25.1662 60.8159 25.0716 60.7749 24.9904 60.7133C24.9091 60.6518 24.8437 60.5715 24.7995 60.4791C24.5773 59.8253 24.4175 59.1508 24.2271 58.4867C24.1851 58.315 24.1104 58.1546 24.0151 57.866C23.7602 58.797 23.5482 59.6019 23.3148 60.4046C23.2513 60.6405 23.2196 60.8764 22.8592 60.8764C22.4987 60.8764 22.4772 60.6301 22.4138 60.4046C22.1168 59.2667 21.8301 58.1443 21.5332 56.9909C21.9571 56.784 22.1905 56.8946 22.2755 57.356C22.4342 58.1381 22.6144 58.9077 22.7875 59.6805C22.8295 59.6805 22.8827 59.6908 22.9257 59.6908C23.1377 58.8984 23.3496 58.106 23.5831 57.3239C23.625 57.1739 23.7213 56.9495 23.838 56.9164C24.1134 56.8408 24.3786 56.8522 24.4739 57.2495C24.6643 58.0771 24.909 58.8777 25.121 59.6908C25.1691 59.6979 25.2178 59.7003 25.2664 59.6981Z" fill="#F5F2FF"/>
<path id="Path 648" d="M22.5419 51.9514C21.9276 51.9514 21.3132 51.9628 20.6989 51.9514C20.5933 51.9584 20.4875 51.9438 20.3877 51.9085C20.2878 51.8732 20.1961 51.8179 20.1179 51.746C20.0397 51.674 19.9767 51.5869 19.9326 51.4898C19.8885 51.3926 19.8643 51.2875 19.8613 51.1807C19.8743 50.9645 19.9679 50.7613 20.1234 50.6121C20.2788 50.4629 20.4845 50.3789 20.6989 50.3769C21.9818 50.3666 23.276 50.3666 24.559 50.3769C24.6653 50.3732 24.7713 50.3918 24.8701 50.4316C24.969 50.4713 25.0586 50.5313 25.1334 50.6078C25.2081 50.6843 25.2664 50.7756 25.3044 50.876C25.3425 50.9764 25.3596 51.0837 25.3546 51.191C25.3502 51.2979 25.3246 51.4029 25.2791 51.4995C25.2337 51.5962 25.1695 51.6826 25.0902 51.7536C25.011 51.8246 24.9184 51.8787 24.8179 51.9127C24.7175 51.9467 24.6113 51.9598 24.5058 51.9514H22.5419Z" fill="#F5F2FF"/>
<path id="Path 649" d="M16.955 58.1647C16.7377 58.0661 16.5399 57.9283 16.3714 57.7582C16.2644 57.6174 16.1282 57.5019 15.9725 57.4198C15.8167 57.3377 15.6451 57.2909 15.4696 57.2827C15.2941 57.2745 15.119 57.3052 14.9564 57.3725C14.7938 57.4397 14.6477 57.5421 14.5283 57.6723C14.2839 58.0016 14.144 58.398 14.127 58.8093C14.11 59.2205 14.2167 59.6273 14.4331 59.9761C14.5924 60.1804 14.8104 60.3299 15.0572 60.404C15.304 60.4781 15.5674 60.4732 15.8113 60.3899C16.0457 60.3385 16.251 60.1969 16.3837 59.995C16.5164 59.7932 16.566 59.547 16.5219 59.3088C15.3956 59.0937 15.3956 59.0937 15.4294 58.7192C15.8963 58.7192 16.3734 58.6975 16.8403 58.7306C16.9133 58.7507 16.9804 58.7884 17.0359 58.8405C17.0913 58.8926 17.1335 58.9574 17.1588 59.0295C17.1905 59.6192 17.169 60.1974 17.169 60.9154C16.9038 60.7871 16.7134 60.6899 16.5331 60.605C16.3139 60.7754 16.0601 60.8947 15.7899 60.9543C15.5197 61.0139 15.2398 61.0124 14.9702 60.95C14.7006 60.8875 14.448 60.7655 14.2306 60.5929C14.0131 60.4202 13.8361 60.2011 13.7123 59.9512C13.5737 59.6833 13.4896 59.3901 13.4648 59.0889C13.44 58.7876 13.475 58.4844 13.5678 58.197C13.6606 57.9096 13.8093 57.6438 14.0052 57.4154C14.2011 57.1869 14.4403 57.0002 14.7086 56.8664C14.9331 56.7602 15.1782 56.7054 15.4261 56.7061C15.6741 56.7067 15.9189 56.7628 16.1429 56.8703C16.3669 56.9778 16.5646 57.134 16.7218 57.3277C16.879 57.5214 16.9919 57.7479 17.0523 57.9909C17.024 58.0511 16.9915 58.1092 16.955 58.1647Z" fill="#F5F2FF"/>
<path id="Path 650" d="M33.7198 60.831H33.1259C33.1259 60.3707 33.1157 59.9206 33.1259 59.481C33.1474 59.1272 32.999 58.9886 32.6601 59.031H32.6068C31.1959 58.9989 31.2061 58.9989 31.1539 60.4131C31.1437 60.5631 30.9737 60.7131 30.8785 60.8631C30.7761 60.7244 30.5815 60.5744 30.5815 60.4348C30.56 59.2772 30.5713 58.1207 30.5713 56.9848C30.9952 56.8245 31.1652 56.8989 31.1754 57.3169C31.2287 58.5169 31.2389 58.5169 32.4266 58.5169H33.127C33.127 58.1103 33.1382 57.7565 33.127 57.4027C33.1065 56.9744 33.2652 56.8027 33.7208 56.9527L33.7198 60.831Z" fill="#F5F2FF"/>
<path id="Path 651" d="M20.463 56.9189H21.1316C21.0784 57.9679 21.0886 58.9972 20.9412 60.0151C20.8388 60.7755 20.0197 61.1076 19.0111 60.9679C18.7004 60.9273 18.416 60.7707 18.2138 60.5289C18.0116 60.2871 17.9063 59.9776 17.9186 59.6614C17.9084 58.75 17.9186 57.851 17.9186 56.9189H18.5463C18.5463 57.7972 18.536 58.6651 18.5463 59.532C18.5382 59.7024 18.578 59.8716 18.6611 60.02C18.7442 60.1684 18.8672 60.2901 19.0159 60.3708C19.1646 60.4515 19.3329 60.4881 19.5013 60.4762C19.6697 60.4644 19.8313 60.4046 19.9674 60.3038C20.2508 60.0327 20.4214 59.6628 20.4446 59.2693C20.5152 58.5079 20.463 57.7362 20.463 56.9189Z" fill="#F5F2FF"/>
<path id="Path 652" d="M30.1564 60.7782C29.6578 60.9603 29.4397 60.8102 29.3506 60.3644C29.2769 59.9889 29.1284 59.6578 28.6196 59.722C28.1414 59.7758 27.5588 59.5285 27.4318 60.3106C27.3571 60.7172 27.1779 61.0285 26.625 60.7927C27.0817 59.5937 27.5271 58.3823 28.0042 57.1823C28.0515 57.1103 28.114 57.0499 28.1874 57.0056C28.2607 56.9612 28.343 56.9339 28.4281 56.9258C28.5083 56.9273 28.5869 56.9486 28.6571 56.9879C28.7272 57.0272 28.7868 57.0833 28.8305 57.1513C29.2984 58.3461 29.7223 59.5565 30.1564 60.7782ZM27.8557 59.1603H28.9482C28.768 58.6565 28.6196 58.2292 28.4598 57.8103C28.4206 57.808 28.3813 57.8115 28.3431 57.8206C28.1844 58.2489 28.0257 58.6679 27.8557 59.1603Z" fill="#F5F2FF"/>
<path id="Path 653" d="M37.6965 60.7806C37.1846 60.9627 36.987 60.8023 36.8907 60.3844C36.8375 60.1589 36.6992 59.8061 36.5508 59.7844C36.1201 59.699 35.677 59.699 35.2463 59.7844C35.1081 59.8165 34.9924 60.1806 34.9392 60.4165C34.8368 60.8447 34.588 60.9523 34.1641 60.7909C34.6207 59.5703 35.0764 58.3599 35.5433 57.1589C35.5861 57.0907 35.6437 57.0332 35.7115 56.9906C35.7794 56.948 35.8559 56.9214 35.9354 56.9127C36.0162 56.9088 36.0967 56.9243 36.1704 56.958C36.244 56.9916 36.3088 57.0424 36.3593 57.1061C36.817 58.3165 37.2409 59.5372 37.6965 60.7806ZM36.4965 59.1989C36.305 58.6816 36.1361 58.2678 35.9764 57.8385C35.9338 57.8369 35.8912 57.8404 35.8494 57.8489C35.7009 58.2772 35.5525 58.7065 35.3825 59.1989H36.4965Z" fill="#F5F2FF"/>
<path id="Path 654" d="M11.694 56.8884C11.8742 57.3167 11.6725 57.3922 11.355 57.4056C10.4745 57.4377 10.4745 57.4491 10.4745 58.3366C10.4745 59.0122 10.453 59.6866 10.4847 60.3725C10.5062 60.8225 10.3363 60.9508 9.87038 60.7863C9.87038 59.8977 9.84889 58.9863 9.88063 58.0863C9.90213 57.5939 9.7854 57.3694 9.24478 57.3901C9.01133 57.4004 8.57617 57.2184 8.57617 57.1439C8.60791 56.6825 9.00007 56.908 9.23352 56.8977C10.0506 56.877 10.8769 56.8884 11.694 56.8884Z" fill="#F5F2FF"/>
<path id="Path 655" d="M39.6791 60.8006C39.1487 60.9609 39.032 60.7572 39.0432 60.3392C39.0648 59.5251 39.032 58.7006 39.0535 57.8865C39.0647 57.5006 38.9163 57.3692 38.5548 57.4044C38.364 57.4241 38.1713 57.4168 37.9825 57.3827C37.9332 57.3633 37.8896 57.3315 37.8561 57.2902C37.8225 57.2488 37.8001 57.1995 37.791 57.1468C37.791 57.0713 37.919 56.9223 37.9958 56.9223C38.9282 56.9113 39.8613 56.9113 40.7951 56.9223C40.8586 56.9223 40.9866 57.0506 40.9754 57.1147C40.9665 57.1701 40.947 57.2233 40.9178 57.271C40.8887 57.3188 40.8505 57.3602 40.8054 57.393C40.7306 57.4468 40.6006 57.4148 40.4982 57.4261C39.6791 57.4582 39.6791 57.4582 39.6791 58.3147V60.8006Z" fill="#F5F2FF"/>
<path id="Path 656" d="M7.46094 56.9189H8.00156V60.8293C7.82135 60.8396 7.66265 60.851 7.46094 60.8614V56.9189Z" fill="#F5F2FF"/>
<path id="Path 657" d="M42.0641 60.8311H41.5234V56.9415C41.6934 56.9311 41.8634 56.9094 42.0641 56.8877V60.8311Z" fill="#F5F2FF"/>
<path id="Path 658" d="M5.93321 56.9189H6.55882V59.1038C6.55882 59.5869 6.58032 60.0689 6.54858 60.5396C6.53834 60.6431 6.35813 60.7548 6.25164 60.8614C6.14925 60.7579 5.95472 60.6472 5.95472 60.5396C5.92298 59.3541 5.93321 58.1603 5.93321 56.9189Z" fill="#F5F2FF"/>
</g>
</svg>
