<svg width="39" height="38" viewBox="0 0 39 38" fill="none" xmlns="http://www.w3.org/2000/svg">
<g id="facebook-logo" clip-path="url(#clip0_1444_18053)">
<path id="Vector" d="M19.6172 0C15.8593 0 12.1859 1.11433 9.06136 3.20208C5.93683 5.28982 3.50155 8.25722 2.06348 11.729C0.62542 15.2008 0.249157 19.0211 0.982276 22.7067C1.71539 26.3924 3.52497 29.7778 6.18217 32.435C8.83936 35.0922 12.2248 36.9018 15.9105 37.6349C19.5961 38.368 23.4164 37.9918 26.8882 36.5537C30.36 35.1156 33.3274 32.6804 35.4151 29.5558C37.5029 26.4313 38.6172 22.7578 38.6172 19C38.6119 13.9625 36.6084 9.13288 33.0463 5.57085C29.4843 2.00881 24.6547 0.00531967 19.6172 0ZM21.0787 35.0093V23.3846H25.4633C25.851 23.3846 26.2227 23.2306 26.4968 22.9565C26.7709 22.6824 26.9249 22.3107 26.9249 21.9231C26.9249 21.5354 26.7709 21.1637 26.4968 20.8896C26.2227 20.6155 25.851 20.4615 25.4633 20.4615H21.0787V16.0769C21.0787 15.3017 21.3867 14.5582 21.9349 14.01C22.4831 13.4618 23.2266 13.1538 24.0018 13.1538H26.9249C27.3125 13.1538 27.6843 12.9999 27.9583 12.7258C28.2324 12.4517 28.3864 12.0799 28.3864 11.6923C28.3864 11.3047 28.2324 10.9329 27.9583 10.6588C27.6843 10.3848 27.3125 10.2308 26.9249 10.2308H24.0018C22.4513 10.2308 20.9643 10.8467 19.868 11.9431C18.7716 13.0394 18.1557 14.5264 18.1557 16.0769V20.4615H13.771C13.3834 20.4615 13.0117 20.6155 12.7376 20.8896C12.4635 21.1637 12.3095 21.5354 12.3095 21.9231C12.3095 22.3107 12.4635 22.6824 12.7376 22.9565C13.0117 23.2306 13.3834 23.3846 13.771 23.3846H18.1557V35.0093C14.0356 34.6332 10.2191 32.6832 7.50001 29.565C4.78096 26.4468 3.36867 22.4004 3.55692 18.2674C3.74517 14.1345 5.51947 10.2332 8.51074 7.37512C11.502 4.51699 15.48 2.92205 19.6172 2.92205C23.7544 2.92205 27.7324 4.51699 30.7236 7.37512C33.7149 10.2332 35.4892 14.1345 35.6775 18.2674C35.8657 22.4004 34.4534 26.4468 31.7344 29.565C29.0153 32.6832 25.1988 34.6332 21.0787 35.0093Z" fill="#F4F5F6"/>
</g>
<defs>
<clipPath id="clip0_1444_18053">
<rect width="38" height="38" fill="white" transform="translate(0.617188)"/>
</clipPath>
</defs>
</svg>
