<svg width="39" height="38" viewBox="0 0 39 38" fill="none" xmlns="http://www.w3.org/2000/svg">
<path id="Vector" d="M19.4121 10.2308C17.6777 10.2308 15.9823 10.7451 14.5402 11.7087C13.0981 12.6722 11.9741 14.0418 11.3104 15.6442C10.6467 17.2465 10.473 19.0097 10.8114 20.7108C11.1497 22.4119 11.9849 23.9744 13.2113 25.2008C14.4377 26.4272 16.0003 27.2624 17.7013 27.6007C19.4024 27.9391 21.1656 27.7654 22.7679 27.1017C24.3703 26.438 25.7399 25.314 26.7035 23.8719C27.667 22.4298 28.1813 20.7344 28.1813 19C28.1789 16.675 27.2542 14.4459 25.6102 12.8019C23.9662 11.1579 21.7371 10.2332 19.4121 10.2308ZM19.4121 24.8462C18.2558 24.8462 17.1256 24.5033 16.1642 23.8609C15.2028 23.2185 14.4534 22.3055 14.011 21.2372C13.5685 20.169 13.4527 18.9935 13.6783 17.8595C13.9039 16.7254 14.4607 15.6837 15.2783 14.8661C16.0959 14.0485 17.1375 13.4918 18.2716 13.2662C19.4056 13.0406 20.5811 13.1564 21.6493 13.5989C22.7176 14.0413 23.6306 14.7907 24.273 15.7521C24.9154 16.7134 25.2583 17.8437 25.2583 19C25.2583 20.5505 24.6423 22.0375 23.546 23.1339C22.4496 24.2302 20.9626 24.8462 19.4121 24.8462ZM28.1813 0H10.6429C7.9304 0.00290157 5.32985 1.08172 3.41184 2.99973C1.49382 4.91774 0.415011 7.51829 0.412109 10.2308V27.7692C0.415011 30.4817 1.49382 33.0823 3.41184 35.0003C5.32985 36.9183 7.9304 37.9971 10.6429 38H28.1813C30.8938 37.9971 33.4944 36.9183 35.4124 35.0003C37.3304 33.0823 38.4092 30.4817 38.4121 27.7692V10.2308C38.4092 7.51829 37.3304 4.91774 35.4124 2.99973C33.4944 1.08172 30.8938 0.00290157 28.1813 0ZM35.489 27.7692C35.489 29.7074 34.7191 31.5661 33.3487 32.9366C31.9782 34.307 30.1195 35.0769 28.1813 35.0769H10.6429C8.70476 35.0769 6.84602 34.307 5.47556 32.9366C4.1051 31.5661 3.33519 29.7074 3.33519 27.7692V10.2308C3.33519 8.29265 4.1051 6.43391 5.47556 5.06345C6.84602 3.69299 8.70476 2.92308 10.6429 2.92308H28.1813C30.1195 2.92308 31.9782 3.69299 33.3487 5.06345C34.7191 6.43391 35.489 8.29265 35.489 10.2308V27.7692ZM31.1044 9.5C31.1044 9.9336 30.9758 10.3575 30.7349 10.718C30.4941 11.0785 30.1517 11.3595 29.7511 11.5254C29.3505 11.6914 28.9097 11.7348 28.4844 11.6502C28.0591 11.5656 27.6685 11.3568 27.3619 11.0502C27.0553 10.7436 26.8465 10.353 26.7619 9.9277C26.6773 9.50243 26.7208 9.06163 26.8867 8.66104C27.0526 8.26045 27.3336 7.91806 27.6941 7.67716C28.0547 7.43627 28.4785 7.30769 28.9121 7.30769C29.4935 7.30769 30.0512 7.53867 30.4623 7.9498C30.8734 8.36094 31.1044 8.91856 31.1044 9.5Z" fill="#F4F5F6"/>
</svg>
