<svg width="38" height="38" viewBox="0 0 38 38" fill="none" xmlns="http://www.w3.org/2000/svg">
<g id="linkedin-logo" clip-path="url(#clip0_1444_18048)">
<path id="Vector" d="M35.3582 -0.304688H2.94651C2.16505 -0.304687 1.41559 0.00574782 0.863014 0.558326C0.310435 1.11091 0 1.86036 0 2.64183V35.0535C0 35.8349 0.310435 36.5844 0.863014 37.137C1.41559 37.6896 2.16505 38 2.94651 38H35.3582C36.1396 38 36.8891 37.6896 37.4417 37.137C37.9943 36.5844 38.3047 35.8349 38.3047 35.0535V2.64183C38.3047 1.86036 37.9943 1.11091 37.4417 0.558326C36.8891 0.00574782 36.1396 -0.304687 35.3582 -0.304688ZM35.3582 35.0535H2.94651V2.64183H35.3582V35.0535ZM13.2593 15.9011V27.6872C13.2593 28.0779 13.1041 28.4527 12.8278 28.729C12.5515 29.0052 12.1768 29.1605 11.7861 29.1605C11.3953 29.1605 11.0206 29.0052 10.7443 28.729C10.468 28.4527 10.3128 28.0779 10.3128 27.6872V15.9011C10.3128 15.5104 10.468 15.1357 10.7443 14.8594C11.0206 14.5831 11.3953 14.4279 11.7861 14.4279C12.1768 14.4279 12.5515 14.5831 12.8278 14.8594C13.1041 15.1357 13.2593 15.5104 13.2593 15.9011ZM29.4651 21.0575V27.6872C29.4651 28.0779 29.3099 28.4527 29.0336 28.729C28.7573 29.0052 28.3826 29.1605 27.9919 29.1605C27.6012 29.1605 27.2264 29.0052 26.9501 28.729C26.6738 28.4527 26.5186 28.0779 26.5186 27.6872V21.0575C26.5186 20.0807 26.1306 19.1439 25.4399 18.4532C24.7491 17.7624 23.8123 17.3744 22.8355 17.3744C21.8587 17.3744 20.9218 17.7624 20.2311 18.4532C19.5404 19.1439 19.1523 20.0807 19.1523 21.0575V27.6872C19.1523 28.0779 18.9971 28.4527 18.7208 28.729C18.4445 29.0052 18.0698 29.1605 17.6791 29.1605C17.2884 29.1605 16.9136 29.0052 16.6373 28.729C16.361 28.4527 16.2058 28.0779 16.2058 27.6872V15.9011C16.2077 15.5403 16.3419 15.1926 16.583 14.9242C16.8241 14.6557 17.1554 14.485 17.514 14.4446C17.8726 14.4042 18.2336 14.4968 18.5285 14.7048C18.8233 14.9129 19.0315 15.2219 19.1137 15.5733C20.1103 14.8973 21.2723 14.5054 22.4748 14.4399C23.6773 14.3744 24.875 14.6377 25.9392 15.2015C27.0034 15.7653 27.8939 16.6083 28.5151 17.64C29.1363 18.6718 29.4647 19.8532 29.4651 21.0575ZM13.9959 10.7447C13.9959 11.1818 13.8663 11.6091 13.6235 11.9725C13.3807 12.3359 13.0355 12.6191 12.6317 12.7864C12.2279 12.9537 11.7836 12.9974 11.3549 12.9122C10.9263 12.8269 10.5325 12.6164 10.2234 12.3074C9.91437 11.9983 9.7039 11.6045 9.61863 11.1759C9.53337 10.7472 9.57713 10.3029 9.74439 9.89905C9.91165 9.49525 10.1949 9.15011 10.5583 8.90729C10.9217 8.66446 11.349 8.53486 11.7861 8.53486C12.3722 8.53486 12.9342 8.76768 13.3487 9.18212C13.7631 9.59655 13.9959 10.1586 13.9959 10.7447Z" fill="#F4F5F6"/>
</g>
<defs>
<clipPath id="clip0_1444_18048">
<rect width="38" height="38" fill="white"/>
</clipPath>
</defs>
</svg>
