<svg width="39" height="38" viewBox="0 0 39 38" fill="none" xmlns="http://www.w3.org/2000/svg">
<g id="x-logo" clip-path="url(#clip0_1444_18050)">
<path id="Vector" d="M36.3957 35.5442L24.0068 16.0742L36.2314 2.6265C36.5079 2.31484 36.6504 1.90677 36.628 1.49076C36.6056 1.07475 36.4202 0.684319 36.1119 0.404124C35.8035 0.12393 35.3972 -0.0234473 34.981 -0.00605599C34.5647 0.0113353 34.1721 0.192093 33.8882 0.49703L22.2434 13.3055L14.2302 0.712747C14.0873 0.487836 13.89 0.302628 13.6564 0.17428C13.4229 0.0459326 13.1608 -0.0214018 12.8943 -0.0214842H3.39484C3.11097 -0.0216222 2.83228 0.0545657 2.58796 0.199101C2.34363 0.343637 2.14266 0.551204 2.00609 0.800067C1.86952 1.04893 1.80237 1.32994 1.81168 1.61366C1.82098 1.89738 1.9064 2.17338 2.05898 2.41276L14.4479 21.8808L2.22324 35.3384C2.08048 35.4917 1.96958 35.6719 1.89697 35.8684C1.82435 36.065 1.79146 36.2739 1.80021 36.4833C1.80895 36.6926 1.85916 36.8981 1.94792 37.0879C2.03667 37.2777 2.16222 37.448 2.31727 37.5889C2.47232 37.7298 2.65379 37.8385 2.85117 37.9088C3.04856 37.979 3.25792 38.0094 3.46713 37.9981C3.67634 37.9869 3.88124 37.9342 4.06994 37.8432C4.25865 37.7522 4.42741 37.6246 4.56645 37.4679L16.2112 24.6594L24.2245 37.2522C24.3685 37.4752 24.5664 37.6585 24.7998 37.7851C25.0333 37.9116 25.2948 37.9775 25.5603 37.9765H35.0598C35.3434 37.9764 35.6217 37.9002 35.8658 37.7557C36.1098 37.6113 36.3105 37.404 36.447 37.1554C36.5836 36.9069 36.6508 36.6262 36.6418 36.3428C36.6327 36.0594 36.5477 35.7836 36.3957 35.5442ZM26.4291 34.81L6.27834 3.14501H12.0176L32.1763 34.81H26.4291Z" fill="#F4F5F6"/>
</g>
<defs>
<clipPath id="clip0_1444_18050">
<rect width="38" height="38" fill="white" transform="translate(0.205078)"/>
</clipPath>
</defs>
</svg>
