<svg width="174" height="39" viewBox="0 0 174 39" fill="none" xmlns="http://www.w3.org/2000/svg">
<g id="Vector">
<path d="M16.4845 0.36427V33.6822C16.4845 34.3186 15.9708 34.8323 15.3344 34.8323C14.6981 34.8323 14.1844 34.3186 14.1844 33.6822V0.36427H0V34.1001C0 36.6418 2.05865 38.7004 4.60034 38.7004H30.6689V0.36427H16.4845Z" fill="#F4F5F6"/>
<path d="M59.6127 0.310547H33.5441V38.6467H59.6127C62.1544 38.6467 64.213 36.588 64.213 34.0463V4.91088C64.213 2.3692 62.1544 0.310547 59.6127 0.310547ZM49.7335 33.7167C49.7335 34.353 49.2198 34.8667 48.5834 34.8667C47.947 34.8667 47.4333 34.353 47.4333 33.7167V5.34791C47.4333 4.71153 47.947 4.19783 48.5834 4.19783C49.2198 4.19783 49.7335 4.71153 49.7335 5.34791V33.7167Z" fill="#F4F5F6"/>
<path d="M83.5727 29.1164C83.5727 31.0178 85.1215 32.5666 87.023 32.5666C87.6594 32.5666 88.1731 33.0803 88.1731 33.7167C88.1731 34.3531 87.6594 34.8668 87.023 34.8668C83.8526 34.8668 81.2726 32.2868 81.2726 29.1164V5.41314C81.2726 4.79209 81.7403 4.23239 82.3613 4.20172C83.0245 4.16721 83.5727 4.69625 83.5727 5.3518V13.7857C83.5727 16.3274 85.6314 18.3861 88.1731 18.3861H97.7571V4.96461C97.7571 2.42292 95.6985 0.36427 93.1568 0.36427H71.6885C69.1469 0.36427 67.0882 2.42292 67.0882 4.96461V34.1001C67.0882 36.6418 69.1469 38.7004 71.6885 38.7004H93.1568C95.6985 38.7004 97.7571 36.6418 97.7571 34.1001V20.6824H83.5727V29.1164Z" fill="#F4F5F6"/>
<path d="M109.841 19.9693C109.599 19.3597 109.914 18.6659 110.542 18.455C111.133 18.2557 111.773 18.6007 112.003 19.1796L119.797 38.7118H131.301L117.125 3.26623C116.427 1.5181 114.736 0.375688 112.854 0.375688H105.233C102.691 0.375688 100.632 2.43434 100.632 4.97602V34.1115C100.632 36.6532 102.691 38.7118 105.233 38.7118H117.32L109.845 19.9693H109.841Z" fill="#F4F5F6"/>
<path d="M132.482 5.9617C132.237 5.35216 132.551 4.65827 133.18 4.44359C133.77 4.24424 134.41 4.58927 134.64 5.16431L148.552 38.7004L160.026 38.6927L146.44 5.9732C146.21 5.39433 146.436 4.70427 147 4.44359C147.602 4.16373 148.307 4.45126 148.553 5.0608L162.503 38.6927L174 38.6851L159.823 3.23946C159.126 1.49134 157.435 0.34892 155.553 0.34892H119.195L134.537 38.7081L146.072 38.7004L132.478 5.95787L132.482 5.9617Z" fill="#F4F5F6"/>
</g>
</svg>
